<svg width="210mm" height="137.519" viewBox="0 0 210 36.385" xmlns="http://www.w3.org/2000/svg"><defs><clipPath clipPathUnits="userSpaceOnUse" id="a"><path style="fill:#b7ce63;fill-opacity:1;stroke-width:.131742;stroke-linecap:round;stroke-linejoin:round" d="M-494.782 560.477h276.659v131.742h-276.659z"/></clipPath></defs><g transform="matrix(.75906 0 0 .75906 375.568 -489.05)" style="fill:#244918;fill-opacity:1" clip-path="url(#a)"><path d="M-483.305 663.766h-9.566l4.783-17.376zM-468.377 661.66h-9.566l4.783-17.375z" style="fill:#244918;fill-opacity:1;stroke:none;stroke-width:.058255;stroke-opacity:1"/><path d="M-465.967 663.766h-9.566l4.783-17.376zM-424.13 664.52h-9.567l4.783-17.376zM-377.772 671.68h-9.566l4.783-17.375zM-363.073 675.074h-9.566l4.783-17.376zM-310.683 680.35h-9.566l4.783-17.376zM-291.084 678.466h-9.566l4.783-17.376zM-274.123 674.32h-9.566l4.783-17.376z" style="fill:#244918;fill-opacity:1;stroke:none;stroke-width:.058255;stroke-opacity:1"/><path d="M-282.792 679.596h-9.566l4.783-17.376zM-241.71 670.928h-9.566l4.783-17.376zM-216.834 667.159h-9.566l4.783-17.376z" style="fill:#244918;fill-opacity:1;stroke:none;stroke-width:.058255;stroke-opacity:1"/><path d="M-496.676 655.133s58.593-10.194 124.55 11.298c65.959 21.493 175.638-15.444 175.638-15.444l-18.087 41.376h-281.713z" style="fill:#244918;fill-opacity:1;stroke:none;stroke-width:.264583;stroke-opacity:1"/></g></svg>