<svg width="210mm" height="238.526" viewBox="0 0 210 63.11" xmlns="http://www.w3.org/2000/svg"><defs><clipPath clipPathUnits="userSpaceOnUse" id="a"><path style="fill:#b7ce63;fill-opacity:1;stroke-width:.131742;stroke-linecap:round;stroke-linejoin:round" d="M-494.66 560.477h276.659v131.742H-494.66z"/></clipPath></defs><g transform="matrix(.75906 0 0 .75906 375.476 -462.324)" style="fill:#3b5823;fill-opacity:1" clip-path="url(#a)"><path d="M-250.025 635.704h-9.566l4.783-17.376zM-229.272 626.453h-9.566l4.783-17.376z" style="fill:#3b5823;fill-opacity:1;stroke:none;stroke-width:.058255;stroke-opacity:1"/><path d="M-226.45 628.627h-9.567l4.783-17.376zM-486.32 638.137h-9.566l4.783-17.376zM-476.52 632.86h-9.566l4.783-17.376zM-465.59 631.73h-9.566l4.783-17.376zM-455.037 634.368h-9.566l4.783-17.376zM-415.462 638.514h-9.566l4.783-17.376zM-400.763 638.89h-9.566l4.783-17.375zM-369.48 652.082h-9.566l4.783-17.376zM-358.55 649.82h-9.566l4.783-17.375zM-328.02 652.836h-9.566l4.783-17.376zM-318.22 647.937h-9.567l4.783-17.376zM-306.16 649.067h-9.566l4.783-17.376zM-274.5 637.006h-9.566l4.783-17.376z" style="fill:#3b5823;fill-opacity:1;stroke:none;stroke-width:.058255;stroke-opacity:1"/><path d="M-203.528 626.414C-233.68 606.438-297 635.459-297 635.459s-59.174 19.6-104.402-.753c-45.229-20.353-95.152-3.77-95.152-3.77l.266 61.427h281.713z" style="fill:#3b5823;fill-opacity:1;stroke:none;stroke-width:.264583;stroke-opacity:1"/></g></svg>