<svg width="754.754" height="287.909" viewBox="0 0 199.695 76.176" xmlns="http://www.w3.org/2000/svg"><defs><clipPath clipPathUnits="userSpaceOnUse" id="a"><path style="fill:#b7ce63;fill-opacity:1;stroke-width:.131742;stroke-linecap:round;stroke-linejoin:round" d="M-494.394 561.294h276.659v131.742h-276.659z"/></clipPath></defs><g transform="matrix(.75906 0 0 .75906 375.274 -449.878)" style="fill:#8fb339;fill-opacity:1" clip-path="url(#a)"><path d="M-399.545 610.056h-9.566l4.783-17.376zM-347.132 627.165h-9.566l4.783-17.376z" style="fill:#8fb339;fill-opacity:1;stroke:none;stroke-width:.058255;stroke-opacity:1"/><path d="M-344.879 625.482h-9.566l4.783-17.376zM-325.957 630.8h-9.566l4.783-17.375zM-289.953 631.73h-9.566l4.783-17.376z" style="fill:#8fb339;fill-opacity:1;stroke:none;stroke-width:.058255;stroke-opacity:1"/><path d="M-453.875 601.134s48.266-11.939 78.115 3.785c29.85 15.725 67.694 25.586 92.213 14.126 24.519-11.46 52.236 24.252 52.236 24.252v76.399l-264.977-27.333 48.15-78.387z" style="fill:#8fb339;fill-opacity:1;stroke:none;stroke-width:.264583;stroke-opacity:1"/></g></svg>