<svg width="210mm" height="339.858" viewBox="0 0 210 89.921" xmlns="http://www.w3.org/2000/svg"><defs><clipPath clipPathUnits="userSpaceOnUse" id="a"><path style="fill:#b7ce63;fill-opacity:1;stroke-width:.132131;stroke-linecap:round;stroke-linejoin:round" d="M-496.04 561.294h278.293v131.742H-496.04z"/></clipPath></defs><g transform="matrix(.7546 0 0 .75906 374.311 -436.133)" style="fill:#b7ce63;fill-opacity:1" clip-path="url(#a)"><path d="M-476.787 589.336h-9.566l4.783-14.764z" style="fill:#b7ce63;fill-opacity:1;stroke:none;stroke-width:.0536986;stroke-opacity:1"/><path d="M-449.273 597.602h-9.566l4.783-17.376zM-417.048 601.276h-9.566l4.783-17.376z" style="fill:#b7ce63;fill-opacity:1;stroke:none;stroke-width:.058255;stroke-opacity:1"/><path d="M-419.885 603.969h-9.566l4.783-17.376z" style="fill:#b7ce63;fill-opacity:1;stroke:none;stroke-width:.058255;stroke-opacity:1"/><path d="M-414.77 605.413h-9.566l4.783-17.376zM-347.132 609.663h-9.566l4.783-17.376zM-324.518 616.447h-9.566l4.783-17.376z" style="fill:#b7ce63;fill-opacity:1;stroke:none;stroke-width:.058255;stroke-opacity:1"/><path d="M-321.69 614.75h-9.567l4.783-17.375zM-265.25 603.16h-9.566l4.783-17.375zM-249.325 606.459h-9.566l4.783-17.376zM-237.453 607.872h-9.566l4.783-17.376z" style="fill:#b7ce63;fill-opacity:1;stroke:none;stroke-width:.058255;stroke-opacity:1"/><path d="M-209.354 612.356c-6.03-5.654-39.575-22.991-61.058-22.237-21.484.753-56.913 33.544-81.788 11.684-24.876-21.86-43.344-12.815-43.344-12.815s-37.314 18.845-62.566 3.769c-25.253-15.076-65.958-1.508-65.958-1.508l24.122 134.075h281.712z" style="fill:#b7ce63;fill-opacity:1;stroke:none;stroke-width:.264583;stroke-opacity:1"/></g></svg>