<svg width="210mm" height="377.953" viewBox="0 0 210 100" xmlns="http://www.w3.org/2000/svg"><g style="fill:#244918;fill-opacity:1"><path style="fill:#244918;fill-opacity:1;stroke-width:.1;stroke-linecap:round;stroke-linejoin:round" d="M210 100H0V61.564s65.778-18.123 98.343 1.6c32.564 19.72 61.276-30.65 111.657-6.93"/><path d="M9.428 66.027h-7.26l3.63-13.19z" style="fill:#244918;fill-opacity:1;stroke:none;stroke-width:.0442189;stroke-opacity:1"/><path d="M12.425 64.161h-7.26l3.63-13.19zM101.174 70.024h-7.262l3.63-13.189z" style="fill:#244918;fill-opacity:1;stroke:none;stroke-width:.0442189;stroke-opacity:1"/><path d="M105.171 71.09h-7.26l3.63-13.189z" style="fill:#244918;fill-opacity:1;stroke:none;stroke-width:.0442189;stroke-opacity:1"/><path d="M103.04 70.29h-7.262l3.63-13.188zM111.301 73.755h-7.261l3.63-13.189z" style="fill:#244918;fill-opacity:1;stroke:none;stroke-width:.0442189;stroke-opacity:1"/><path d="M115.032 75.088h-7.261l3.63-13.19zM123.827 72.956h-7.261l3.63-13.19z" style="fill:#244918;fill-opacity:1;stroke:none;stroke-width:.0442189;stroke-opacity:1"/><path d="M128.358 73.222h-7.261l3.63-13.189zM139.285 70.29h-7.261l3.63-13.188zM146.48 65.76h-7.26l3.63-13.19zM83.584 64.694h-7.261l3.63-13.19zM61.997 62.828h-7.262l3.63-13.189zM175.264 59.63h-7.261l3.63-13.189zM209.11 62.295h-7.26l3.63-13.189z" style="fill:#244918;fill-opacity:1;stroke:none;stroke-width:.0442189;stroke-opacity:1"/><path d="M206.712 59.897h-7.261l3.63-13.19z" style="fill:#244918;fill-opacity:1;stroke:none;stroke-width:.0442189;stroke-opacity:1"/></g></svg>