<svg width="793.701" height="377.953" viewBox="0 0 210 100" xmlns="http://www.w3.org/2000/svg"><g style="fill:#729669;fill-opacity:1"><path d="M161.938 39.642h-7.261l3.63-13.19zM141.417 34.578h-7.261l3.63-13.189zM80.652 31.38h-7.26l3.63-13.19zM50.65 31.282h-7.262l3.63-13.19z" style="fill:#729669;fill-opacity:1;stroke:none;stroke-width:.0442189;stroke-opacity:1"/><path d="M53.288 31.659h-7.262l3.63-13.19z" style="fill:#729669;fill-opacity:1;stroke:none;stroke-width:.0442189;stroke-opacity:1"/><path d="M57.34 33.92h-7.262l3.63-13.19zM65.537 33.355h-7.261l3.63-13.19z" style="fill:#729669;fill-opacity:1;stroke:none;stroke-width:.0442189;stroke-opacity:1"/><path d="M70.248 34.203h-7.26l3.63-13.19zM152.225 38.349h-7.261l3.63-13.19z" style="fill:#729669;fill-opacity:1;stroke:none;stroke-width:.0442189;stroke-opacity:1"/><path d="M154.957 40.14h-7.26l3.63-13.19z" style="fill:#729669;fill-opacity:1;stroke:none;stroke-width:.0442189;stroke-opacity:1"/><path d="M154.392 40.045h-7.261l3.63-13.19zM168.243 41.93h-7.261l3.63-13.19z" style="fill:#729669;fill-opacity:1;stroke:none;stroke-width:.0442189;stroke-opacity:1"/><path d="M170.787 40.799h-7.26l3.63-13.19zM184.544 41.27h-7.26l3.63-13.19zM198.395 39.103h-7.26l3.63-13.19z" style="fill:#729669;fill-opacity:1;stroke:none;stroke-width:.0442189;stroke-opacity:1"/><path d="M200.468 39.103h-7.26l3.63-13.19zM209.043 34.674h-7.261l3.63-13.19z" style="fill:#729669;fill-opacity:1;stroke:none;stroke-width:.0442189;stroke-opacity:1"/><path style="fill:#729669;fill-opacity:1;stroke-width:.138802;stroke-linecap:round;stroke-linejoin:round" d="M-496.288 720.737V577.542s29.05-14.81 48.138 3.169c19.089 17.979 50.815-25.881 80.422-5.607 29.608 20.275 55.409 32.42 92.612 8.532v137.101z" transform="matrix(.94949 0 0 .54666 471.22 -294)"/></g></svg>