<svg width="793.701" height="377.953" viewBox="0 0 210 100" xmlns="http://www.w3.org/2000/svg"><g style="fill:#242e22;fill-opacity:1"><path style="fill:#242e22;fill-opacity:1;stroke-width:.1;stroke-linecap:round;stroke-linejoin:round" d="M0 100h210V74.25s-46.36 16.207-105 6.407-105 0-105 0"/><path d="M110.768 88.68h-7.261l3.63-13.19z" style="fill:#242e22;fill-opacity:1;stroke:none;stroke-width:.0442189;stroke-opacity:1"/><path d="M116.365 90.013h-7.261l3.63-13.19z" style="fill:#242e22;fill-opacity:1;stroke:none;stroke-width:.0442189;stroke-opacity:1"/><path d="M113.7 86.281h-7.262l3.63-13.189zM125.16 91.612h-7.262l3.63-13.19z" style="fill:#242e22;fill-opacity:1;stroke:none;stroke-width:.0442189;stroke-opacity:1"/><path d="M130.49 91.878h-7.261l3.63-13.19z" style="fill:#242e22;fill-opacity:1;stroke:none;stroke-width:.0442189;stroke-opacity:1"/><path d="M136.353 89.48h-7.261l3.63-13.19z" style="fill:#242e22;fill-opacity:1;stroke:none;stroke-width:.0442189;stroke-opacity:1"/><path d="M140.884 91.345h-7.261l3.63-13.19zM154.476 89.48h-7.261l3.63-13.19z" style="fill:#242e22;fill-opacity:1;stroke:none;stroke-width:.0442189;stroke-opacity:1"/><path d="M159.007 91.878h-7.262l3.63-13.19zM165.403 88.147h-7.261l3.63-13.19z" style="fill:#242e22;fill-opacity:1;stroke:none;stroke-width:.0442189;stroke-opacity:1"/><path d="M163.27 89.746h-7.26l3.63-13.19zM179.261 87.88h-7.26l3.63-13.189zM19.088 84.416h-7.26l3.63-13.19z" style="fill:#242e22;fill-opacity:1;stroke:none;stroke-width:.0442189;stroke-opacity:1"/><path d="M22.553 85.482h-7.261l3.63-13.19zM148.613 91.345h-7.262l3.63-13.19zM64.928 81.484h-7.261l3.63-13.189z" style="fill:#242e22;fill-opacity:1;stroke:none;stroke-width:.0442189;stroke-opacity:1"/></g></svg>