<svg width="793.701" height="377.953" viewBox="0 0 210 100" xmlns:xlink="http://www.w3.org/1999/xlink" xmlns="http://www.w3.org/2000/svg"><defs><clipPath clipPathUnits="userSpaceOnUse" id="h"><path style="fill:#b7ce63;fill-opacity:1;stroke-width:.131742;stroke-linecap:round;stroke-linejoin:round" d="M-494.782 560.477h276.659v131.742h-276.659z"/></clipPath><clipPath clipPathUnits="userSpaceOnUse" id="g"><path style="fill:#b7ce63;fill-opacity:1;stroke-width:.131742;stroke-linecap:round;stroke-linejoin:round" d="M-494.66 560.477h276.659v131.742H-494.66z"/></clipPath><clipPath clipPathUnits="userSpaceOnUse" id="f"><path style="fill:#b7ce63;fill-opacity:1;stroke-width:.131742;stroke-linecap:round;stroke-linejoin:round" d="M-494.394 561.294h276.659v131.742h-276.659z"/></clipPath><clipPath clipPathUnits="userSpaceOnUse" id="e"><path style="fill:#b7ce63;fill-opacity:1;stroke-width:.131742;stroke-linecap:round;stroke-linejoin:round" d="M-494.394 561.294h276.659v131.742h-276.659z"/></clipPath><clipPath clipPathUnits="userSpaceOnUse" id="d"><path style="fill:#b7ce63;fill-opacity:1;stroke-width:.132131;stroke-linecap:round;stroke-linejoin:round" d="M-496.04 561.294h278.293v131.742H-496.04z"/></clipPath><clipPath clipPathUnits="userSpaceOnUse" id="c"><path style="fill:#b7ce63;fill-opacity:1;stroke-width:.1;stroke-linecap:round;stroke-linejoin:round" d="M0 0h210v100H0z"/></clipPath><linearGradient id="a"><stop offset="0" style="stop-color:#e9edd7;stop-opacity:1"/><stop offset="1" style="stop-color:#f1ebb0;stop-opacity:1"/></linearGradient><linearGradient xlink:href="#a" id="b" gradientUnits="userSpaceOnUse" gradientTransform="matrix(.75565 0 0 .53453 373.58 -269.981)" x1="-347.132" y1="599.779" x2="-347.106" y2="540.815"/></defs><path d="M-1.438-.109h212.876V100.11H-1.438z" style="fill:url(#b);stroke:none;stroke-width:.183096;stroke-opacity:1" clip-path="url(#c)"/><g transform="matrix(.7546 0 0 .75906 374.311 -426.054)" style="fill:#b7ce63;fill-opacity:1" clip-path="url(#d)"><path d="M-476.787 589.336h-9.566l4.783-14.764z" style="fill:#b7ce63;fill-opacity:1;stroke:none;stroke-width:.0536986;stroke-opacity:1"/><path d="M-449.273 597.602h-9.566l4.783-17.376zM-417.048 601.276h-9.566l4.783-17.376z" style="fill:#b7ce63;fill-opacity:1;stroke:none;stroke-width:.058255;stroke-opacity:1"/><path d="M-419.885 603.969h-9.566l4.783-17.376z" style="fill:#b7ce63;fill-opacity:1;stroke:none;stroke-width:.058255;stroke-opacity:1"/><path d="M-414.77 605.413h-9.566l4.783-17.376zM-347.132 609.663h-9.566l4.783-17.376zM-324.518 616.447h-9.566l4.783-17.376z" style="fill:#b7ce63;fill-opacity:1;stroke:none;stroke-width:.058255;stroke-opacity:1"/><path d="M-321.69 614.75h-9.567l4.783-17.375zM-265.25 603.16h-9.566l4.783-17.375zM-249.325 606.459h-9.566l4.783-17.376zM-237.453 607.872h-9.566l4.783-17.376z" style="fill:#b7ce63;fill-opacity:1;stroke:none;stroke-width:.058255;stroke-opacity:1"/><path d="M-209.354 612.356c-6.03-5.654-39.575-22.991-61.058-22.237-21.484.753-56.913 33.544-81.788 11.684-24.876-21.86-43.344-12.815-43.344-12.815s-37.314 18.845-62.566 3.769c-25.253-15.076-65.958-1.508-65.958-1.508l24.122 134.075h281.712z" style="fill:#b7ce63;fill-opacity:1;stroke:none;stroke-width:.264583;stroke-opacity:1"/></g><g transform="matrix(.75906 0 0 .75906 375.274 -426.054)" style="fill:#8fb339;fill-opacity:1" clip-path="url(#e)"><path d="M-399.545 610.056h-9.566l4.783-17.376zM-347.132 627.165h-9.566l4.783-17.376z" style="fill:#8fb339;fill-opacity:1;stroke:none;stroke-width:.058255;stroke-opacity:1"/><path d="M-344.879 625.482h-9.566l4.783-17.376zM-325.957 630.8h-9.566l4.783-17.375zM-289.953 631.73h-9.566l4.783-17.376z" style="fill:#8fb339;fill-opacity:1;stroke:none;stroke-width:.058255;stroke-opacity:1"/><path d="M-453.875 601.134s48.266-11.939 78.115 3.785c29.85 15.725 67.694 25.586 92.213 14.126 24.519-11.46 52.236 24.252 52.236 24.252v76.399l-264.977-27.333 48.15-78.387z" style="fill:#8fb339;fill-opacity:1;stroke:none;stroke-width:.264583;stroke-opacity:1"/></g><g transform="matrix(.75906 0 0 .75906 375.274 -426.054)" style="fill:#4f772d;fill-opacity:1" clip-path="url(#f)"><path d="M-474.955 608.944h-9.566l4.783-17.376z" style="fill:#4f772d;fill-opacity:1;stroke:none;stroke-width:.058255;stroke-opacity:1"/><path d="M-471.842 611.472h-9.566l4.783-17.376z" style="fill:#4f772d;fill-opacity:1;stroke:none;stroke-width:.058255;stroke-opacity:1"/><path d="M-496.288 598.62c113.62 0 153.195 48.997 153.195 48.997v73.12l-152.928-28.374z" style="fill:#4f772d;fill-opacity:1;stroke:none;stroke-width:.264583;stroke-opacity:1"/></g><g transform="matrix(.75906 0 0 .75906 375.476 -425.435)" style="fill:#3b5823;fill-opacity:1" clip-path="url(#g)"><path d="M-250.025 635.704h-9.566l4.783-17.376zM-229.272 626.453h-9.566l4.783-17.376z" style="fill:#3b5823;fill-opacity:1;stroke:none;stroke-width:.058255;stroke-opacity:1"/><path d="M-226.45 628.627h-9.567l4.783-17.376zM-486.32 638.137h-9.566l4.783-17.376zM-476.52 632.86h-9.566l4.783-17.376zM-465.59 631.73h-9.566l4.783-17.376zM-455.037 634.368h-9.566l4.783-17.376zM-415.462 638.514h-9.566l4.783-17.376zM-400.763 638.89h-9.566l4.783-17.375zM-369.48 652.082h-9.566l4.783-17.376zM-358.55 649.82h-9.566l4.783-17.375zM-328.02 652.836h-9.566l4.783-17.376zM-318.22 647.937h-9.567l4.783-17.376zM-306.16 649.067h-9.566l4.783-17.376zM-274.5 637.006h-9.566l4.783-17.376z" style="fill:#3b5823;fill-opacity:1;stroke:none;stroke-width:.058255;stroke-opacity:1"/><path d="M-203.528 626.414C-233.68 606.438-297 635.459-297 635.459s-59.174 19.6-104.402-.753c-45.229-20.353-95.152-3.77-95.152-3.77l.266 61.427h281.713z" style="fill:#3b5823;fill-opacity:1;stroke:none;stroke-width:.264583;stroke-opacity:1"/></g><g transform="matrix(.75906 0 0 .75906 375.568 -425.435)" style="fill:#244918;fill-opacity:1" clip-path="url(#h)"><path d="M-483.305 663.766h-9.566l4.783-17.376zM-468.377 661.66h-9.566l4.783-17.375z" style="fill:#244918;fill-opacity:1;stroke:none;stroke-width:.058255;stroke-opacity:1"/><path d="M-465.967 663.766h-9.566l4.783-17.376zM-424.13 664.52h-9.567l4.783-17.376zM-377.772 671.68h-9.566l4.783-17.375zM-363.073 675.074h-9.566l4.783-17.376zM-310.683 680.35h-9.566l4.783-17.376zM-291.084 678.466h-9.566l4.783-17.376zM-274.123 674.32h-9.566l4.783-17.376z" style="fill:#244918;fill-opacity:1;stroke:none;stroke-width:.058255;stroke-opacity:1"/><path d="M-282.792 679.596h-9.566l4.783-17.376zM-241.71 670.928h-9.566l4.783-17.376zM-216.834 667.159h-9.566l4.783-17.376z" style="fill:#244918;fill-opacity:1;stroke:none;stroke-width:.058255;stroke-opacity:1"/><path d="M-496.676 655.133s58.593-10.194 124.55 11.298c65.959 21.493 175.638-15.444 175.638-15.444l-18.087 41.376h-281.713z" style="fill:#244918;fill-opacity:1;stroke:none;stroke-width:.264583;stroke-opacity:1"/></g></svg>