<?xml version="1.0" encoding="UTF-8" standalone="no"?>
<svg
   width="210mm"
   height="297mm"
   viewBox="0 0 210 297"
   xml:space="preserve"
   version="1.1"
   id="svg220"
   sodipodi:docname="varlogofinal2-min.svg"
   inkscape:version="1.2.2 (732a01da63, 2022-12-09)"
   xmlns:inkscape="http://www.inkscape.org/namespaces/inkscape"
   xmlns:sodipodi="http://sodipodi.sourceforge.net/DTD/sodipodi-0.dtd"
   xmlns="http://www.w3.org/2000/svg"
   xmlns:svg="http://www.w3.org/2000/svg"><defs
     id="defs224" /><sodipodi:namedview
     id="namedview222"
     pagecolor="#505050"
     bordercolor="#eeeeee"
     borderopacity="1"
     inkscape:showpageshadow="0"
     inkscape:pageopacity="0"
     inkscape:pagecheckerboard="0"
     inkscape:deskcolor="#505050"
     inkscape:document-units="mm"
     showgrid="false"
     inkscape:zoom="0.67170314"
     inkscape:cx="358.04507"
     inkscape:cy="561.25984"
     inkscape:window-width="1920"
     inkscape:window-height="986"
     inkscape:window-x="-11"
     inkscape:window-y="-11"
     inkscape:window-maximized="1"
     inkscape:current-layer="svg220" /><circle
     style="fill:#1e1f1e;stroke-width:0.1;stroke-linecap:round;stroke-linejoin:round;fill-opacity:1"
     id="path386"
     cx="104.99844"
     cy="156.41556"
     r="95.496246" /><g
     style="display:inline;stroke-width:0;stroke-dasharray:none"
     id="g214"><path
       style="display:inline;fill:#e9edd7;fill-opacity:1;stroke:#000;stroke-width:0;stroke-dasharray:none"
       d="M114.579 96.074c-10.762 0-19.487 8.725-19.487 19.487.53 10.317 7.728 14.439 10.685 23.693h17.603c2.957-9.254 10.156-13.376 10.686-23.693 0-10.762-8.725-19.486-19.487-19.487z"
       transform="translate(-181.26 -153.12) scale(2.49835)"
       id="path204" /><path
       style="fill:#a7bf4e;fill-opacity:1;stroke:#000;stroke-width:0;stroke-dasharray:none;stroke-opacity:1"
       d="M125.753 112.524c.001-.014-.002.034-.01.109.017-.068.01-.109.01-.109zm-.01.109c-.073.293-.584 1.098-3.973 1.438-4.18.42-4.43 3.336-3.86 3.9.569.564 3.948-2.675 3.841-2.176-.106.5-3.098 2.896-3.098 2.896-2.007 1.819-3.355 8.597-4.132 13.966a131.662 131.662 0 0 0-.826 7.028l1.21-.182s1.778-20.275 6.188-21.145c3.986-.786 4.58-5.02 4.65-5.725zm-21.813 5.034s-.005.034.008.09a4.366 4.366 0 0 1-.008-.09zm.008.09c.044.47.471 3.977 3.708 4.625 3.517.703 4.935 17.09 4.935 17.09l.964.147s-1.195-14.435-3.953-16.968c0 0-2.386-1.937-2.471-2.34-.085-.404 2.61 2.214 3.063 1.758.454-.455.255-2.813-3.077-3.152-2.698-.274-3.11-.923-3.169-1.16z"
       transform="translate(-181.26 -153.12) scale(2.49835)"
       id="path206" /><path
       style="fill:#7f675b;fill-opacity:1;stroke:#000;stroke-width:0;stroke-dasharray:none;stroke-opacity:1"
       d="M123.38 139.255h-17.603c.002.06.006.123.003.179a1.43 1.43 0 0 1-.035.25.648.648 0 0 0-.008.196.748.748 0 0 0 .046.188c.024.06.055.12.092.178.038.059.081.115.13.17.048.055.101.109.158.16.056.052.116.102.178.15.123.096.254.185.38.265.255.16.494.288.626.375a.634.634 0 0 1 .077.058c.018.017.028.031.028.043 0 .01-.009.019-.029.025a.362.362 0 0 1-.095.009.715 1.157 0 0 0-.273.088.715 1.157 0 0 0-.232.25.715 1.157 0 0 0-.155.377.715 1.157 0 0 0-.055.442.715 1.157 0 0 0 .055.443.715 1.157 0 0 0 .155.376.715 1.157 0 0 0 .232.25.715 1.157 0 0 0 .273.089v.84a.715 1.157 0 0 0-.273.09.715 1.157 0 0 0-.232.25.715 1.157 0 0 0-.155.376.715 1.157 0 0 0-.055.442.715 1.157 0 0 0 .055.443.715 1.157 0 0 0 .155.376.715 1.157 0 0 0 .232.25.715 1.157 0 0 0 .273.088v.839a.715 1.157 0 0 0-.273.088.715 1.157 0 0 0-.232.25.715 1.157 0 0 0-.155.376.715 1.157 0 0 0-.055.443.715 1.157 0 0 0 .055.443.715 1.157 0 0 0 .155.375.715 1.157 0 0 0 .232.251.715 1.157 0 0 0 .273.088v.652a1.351 1.351 0 0 0 .065.417 1.605 1.605 0 0 0 .182.39 2.037 2.037 0 0 0 .277.353 2.64 2.64 0 0 0 .352.31 3.44 3.44 0 0 0 .85.455 3.186 3.186 0 0 0 .683.166c.075.009.15.014.223.016.147.004.271.01.378.017.106.007.194.017.268.03a.947.947 0 0 1 .184.047.455.455 0 0 1 .216.17c.027.04.053.084.082.135.057.102.125.23.238.393a1.808 1.808 0 0 0 .352.377 1.488 1.488 0 0 0 .336.197 1.24 1.24 0 0 0 .35.087h4.429s.037 0 .099-.012a1.24 1.24 0 0 0 .413-.154 1.488 1.488 0 0 0 .352-.28c.06-.063.118-.134.174-.215.112-.162.18-.291.238-.393.029-.051.055-.095.082-.134a.454.454 0 0 1 .216-.17.94.94 0 0 1 .184-.048c.074-.013.162-.022.268-.03.107-.007.231-.012.378-.017a2.619 2.619 0 0 0 .45-.053 3.437 3.437 0 0 0 1.306-.584 2.943 2.943 0 0 0 .353-.31 2.358 2.358 0 0 0 .277-.353 1.797 1.797 0 0 0 .18-.39 1.437 1.437 0 0 0 .065-.417v-.652a.715 1.157 0 0 0 .113-.014.715 1.157 0 0 0 .109-.042.715 1.157 0 0 0 .104-.07.715 1.157 0 0 0 .095-.094.715 1.157 0 0 0 .085-.119.715 1.157 0 0 0 .073-.138.715 1.157 0 0 0 .06-.154.715 1.157 0 0 0 .042-.168.715 1.157 0 0 0 .027-.177.715 1.157 0 0 0 .009-.18.715 1.157 0 0 0-.01-.182.715 1.157 0 0 0-.026-.176.715 1.157 0 0 0-.043-.168.715 1.157 0 0 0-.059-.155.715 1.157 0 0 0-.073-.138.715 1.157 0 0 0-.085-.118.715 1.157 0 0 0-.095-.095.715 1.157 0 0 0-.104-.07.715 1.157 0 0 0-.11-.042.715 1.157 0 0 0-.112-.014v-.839a.715 1.157 0 0 0 .113-.014.715 1.157 0 0 0 .109-.042.715 1.157 0 0 0 .104-.07.715 1.157 0 0 0 .095-.094.715 1.157 0 0 0 .085-.118.715 1.157 0 0 0 .073-.139.715 1.157 0 0 0 .06-.154.715 1.157 0 0 0 .042-.168.715 1.157 0 0 0 .027-.177.715 1.157 0 0 0 .009-.18.715 1.157 0 0 0-.055-.444.715 1.157 0 0 0-.155-.375.715 1.157 0 0 0-.232-.25.715 1.157 0 0 0-.274-.09v-.84a.715 1.157 0 0 0 .112-.015.715 1.157 0 0 0 .109-.042.715 1.157 0 0 0 .104-.07.715 1.157 0 0 0 .095-.094.715 1.157 0 0 0 .086-.118.715 1.157 0 0 0 .073-.139.715 1.157 0 0 0 .059-.154.715 1.157 0 0 0 .042-.168.715 1.157 0 0 0 .027-.177.715 1.157 0 0 0 .009-.18.715 1.157 0 0 0-.01-.182.715 1.157 0 0 0-.026-.176.715 1.157 0 0 0-.042-.168.715 1.157 0 0 0-.06-.155.715 1.157 0 0 0-.072-.138.715 1.157 0 0 0-.086-.118.715 1.157 0 0 0-.095-.095.715 1.157 0 0 0-.104-.07.715 1.157 0 0 0-.11-.042.715 1.157 0 0 0-.111-.014.357.357 0 0 1-.095-.01c-.02-.005-.03-.013-.029-.025 0-.011.01-.025.029-.042a.634.634 0 0 1 .077-.058c.131-.087.37-.215.624-.375a4.77 4.77 0 0 0 .382-.265c.062-.048.121-.098.178-.15.056-.051.109-.105.157-.16.049-.055.092-.112.13-.17a.992.992 0 0 0 .091-.179.74.74 0 0 0 .047-.187.644.644 0 0 0-.008-.196 1.41 1.41 0 0 1-.035-.25c-.003-.057.001-.119.003-.18z"
       class="UnoptimicedTransforms"
       transform="translate(-181.26 -153.12) scale(2.49835)"
       id="path208" /><path
       style="fill:#000;fill-opacity:0;stroke:#6e594e;stroke-width:.0925291;stroke-linecap:round;stroke-dasharray:none;stroke-opacity:1"
       d="M107.328 147.81h14.5M107.328 150.124h14.5M107.328 146.971h14.5M121.829 144.657h-14.5M107.328 143.816h14.5M107.452 141.467l14.282.025"
       transform="translate(-181.26 -153.12) scale(2.49835)"
       id="path210" /><path
       style="fill:#6e594e;fill-opacity:1;stroke:#6e594e;stroke-width:.1;stroke-linecap:round;stroke-dasharray:none;stroke-opacity:1"
       d="M118.833 156.581h-8.19"
       transform="translate(-160.244 -132.898) scale(2.3117)"
       id="path212" /></g></svg>
