<svg width="210mm" height="297mm" viewBox="0 0 210 297" xml:space="preserve" xmlns="http://www.w3.org/2000/svg"><g aria-label="inogreen" style="font-size:97.7681px;fill:#bccd79;stroke-width:3.07932;stroke-linecap:round;stroke-linejoin:round"><path d="M27.882 134.111H23.9v-3.662h3.982zm-.225 24.495h-3.532v-20.982h3.532zM52.189 158.606h-3.532v-11.947q0-1.446-.169-2.705-.169-1.277-.62-1.99-.47-.79-1.352-1.165-.883-.395-2.292-.395-1.446 0-3.024.714t-3.024 1.822v15.666h-3.532v-20.982h3.532v2.33q1.653-1.372 3.418-2.142 1.766-.77 3.626-.77 3.4 0 5.184 2.047 1.785 2.048 1.785 5.898zM76.87 148.124q0 5.128-2.629 8.096-2.63 2.968-7.044 2.968-4.452 0-7.082-2.968-2.61-2.968-2.61-8.096t2.61-8.096q2.63-2.986 7.082-2.986 4.414 0 7.044 2.986 2.63 2.968 2.63 8.096zm-3.643 0q0-4.076-1.597-6.048-1.597-1.991-4.433-1.991-2.874 0-4.47 1.99-1.578 1.973-1.578 6.05 0 3.944 1.596 5.991 1.597 2.03 4.452 2.03 2.818 0 4.414-2.01 1.616-2.03 1.616-6.012zM99.355 156.22q0 5.335-2.423 7.833t-7.457 2.498q-1.672 0-3.269-.244-1.577-.225-3.118-.657v-3.607h.188q.864.338 2.743.827 1.878.507 3.756.507 1.804 0 2.987-.432t1.84-1.202q.658-.733.94-1.766.282-1.033.282-2.31v-1.916q-1.597 1.277-3.062 1.916-1.446.62-3.7.62-3.757 0-5.974-2.705-2.197-2.724-2.197-7.664 0-2.705.75-4.659.771-1.972 2.086-3.4 1.22-1.333 2.968-2.066 1.747-.751 3.475-.751 1.822 0 3.043.375 1.24.357 2.61 1.109l.226-.902h3.306zm-3.531-3.38V141.4q-1.409-.639-2.63-.902-1.202-.282-2.404-.282-2.912 0-4.584 1.954-1.671 1.953-1.671 5.673 0 3.531 1.24 5.353 1.24 1.822 4.113 1.822 1.54 0 3.08-.582 1.56-.601 2.856-1.597zM119.398 141.475h-.188q-.789-.188-1.54-.263-.733-.094-1.747-.094-1.634 0-3.156.732-1.521.714-2.93 1.86v14.896h-3.532v-20.982h3.532v3.1q2.104-1.691 3.7-2.386 1.616-.714 3.287-.714.92 0 1.334.056.413.038 1.24.17zM140.286 148.481h-15.46q0 1.935.583 3.381.582 1.428 1.596 2.348.977.902 2.31 1.353 1.353.45 2.969.45 2.141 0 4.301-.845 2.18-.864 3.1-1.69h.188v3.85q-1.785.752-3.645 1.259-1.86.507-3.907.507-5.222 0-8.152-2.817-2.93-2.837-2.93-8.04 0-5.147 2.799-8.171 2.817-3.024 7.4-3.024 4.246 0 6.537 2.48 2.31 2.479 2.31 7.043zm-3.438-2.705q-.018-2.78-1.409-4.301-1.37-1.522-4.188-1.522-2.837 0-4.527 1.672-1.672 1.672-1.897 4.151zM163.202 148.481h-15.459q0 1.935.582 3.381.583 1.428 1.597 2.348.977.902 2.31 1.353 1.353.45 2.968.45 2.142 0 4.302-.845 2.179-.864 3.1-1.69h.187v3.85q-1.784.752-3.644 1.259-1.86.507-3.907.507-5.222 0-8.152-2.817-2.93-2.837-2.93-8.04 0-5.147 2.798-8.171 2.818-3.024 7.401-3.024 4.245 0 6.537 2.48 2.31 2.479 2.31 7.043zm-3.437-2.705q-.019-2.78-1.409-4.301-1.371-1.522-4.189-1.522-2.836 0-4.527 1.672-1.672 1.672-1.897 4.151zM186.1 158.606h-3.531v-11.947q0-1.446-.17-2.705-.168-1.277-.62-1.99-.469-.79-1.352-1.165-.883-.395-2.291-.395-1.447 0-3.025.714-1.577.714-3.024 1.822v15.666h-3.531v-20.982h3.531v2.33q1.653-1.372 3.419-2.142 1.766-.77 3.625-.77 3.4 0 5.185 2.047 1.784 2.048 1.784 5.898z"/></g><g style="display:inline;stroke-width:0;stroke-dasharray:none"><path style="display:inline;fill:#e9edd7;fill-opacity:1;stroke:#000;stroke-width:0;stroke-dasharray:none" d="M114.579 96.074c-10.762 0-19.487 8.725-19.487 19.487.53 10.317 7.728 14.439 10.685 23.693h17.603c2.957-9.254 10.156-13.376 10.686-23.693 0-10.762-8.725-19.486-19.487-19.487z" transform="matrix(.42525 0 0 .42525 -22.834 70.271)"/><path style="fill:#a7bf4e;fill-opacity:1;stroke:#000;stroke-width:0;stroke-dasharray:none;stroke-opacity:1" d="M125.753 112.524c.001-.014-.002.034-.01.109.017-.068.01-.109.01-.109zm-.01.109c-.073.293-.584 1.098-3.973 1.438-4.18.42-4.43 3.336-3.86 3.9.569.564 3.948-2.675 3.841-2.176-.106.5-3.098 2.896-3.098 2.896-2.007 1.819-3.355 8.597-4.132 13.966a131.662 131.662 0 0 0-.826 7.028l1.21-.182s1.778-20.275 6.188-21.145c3.986-.786 4.58-5.02 4.65-5.725zm-21.813 5.034s-.005.034.008.09a4.366 4.366 0 0 1-.008-.09zm.008.09c.044.47.471 3.977 3.708 4.625 3.517.703 4.935 17.09 4.935 17.09l.964.147s-1.195-14.435-3.953-16.968c0 0-2.386-1.937-2.471-2.34-.085-.404 2.61 2.214 3.063 1.758.454-.455.255-2.813-3.077-3.152-2.698-.274-3.11-.923-3.169-1.16z" transform="matrix(.42525 0 0 .42525 -22.834 70.271)"/><path style="fill:#7f675b;fill-opacity:1;stroke:#000;stroke-width:0;stroke-dasharray:none;stroke-opacity:1" d="M123.38 139.255h-17.603c.002.06.006.123.003.179a1.43 1.43 0 0 1-.035.25.648.648 0 0 0-.008.196.748.748 0 0 0 .046.188c.024.06.055.12.092.178.038.059.081.115.13.17.048.055.101.109.158.16.056.052.116.102.178.15.123.096.254.185.38.265.255.16.494.288.626.375a.634.634 0 0 1 .077.058c.018.017.028.031.028.043 0 .01-.009.019-.029.025a.362.362 0 0 1-.095.009.715 1.157 0 0 0-.273.088.715 1.157 0 0 0-.232.25.715 1.157 0 0 0-.155.377.715 1.157 0 0 0-.055.442.715 1.157 0 0 0 .055.443.715 1.157 0 0 0 .155.376.715 1.157 0 0 0 .232.25.715 1.157 0 0 0 .273.089v.84a.715 1.157 0 0 0-.273.09.715 1.157 0 0 0-.232.25.715 1.157 0 0 0-.155.376.715 1.157 0 0 0-.055.442.715 1.157 0 0 0 .055.443.715 1.157 0 0 0 .155.376.715 1.157 0 0 0 .232.25.715 1.157 0 0 0 .273.088v.839a.715 1.157 0 0 0-.273.088.715 1.157 0 0 0-.232.25.715 1.157 0 0 0-.155.376.715 1.157 0 0 0-.055.443.715 1.157 0 0 0 .055.443.715 1.157 0 0 0 .155.375.715 1.157 0 0 0 .232.251.715 1.157 0 0 0 .273.088v.652a1.351 1.351 0 0 0 .065.417 1.605 1.605 0 0 0 .182.39 2.037 2.037 0 0 0 .277.353 2.64 2.64 0 0 0 .352.31 3.44 3.44 0 0 0 .85.455 3.186 3.186 0 0 0 .683.166c.075.009.15.014.223.016.147.004.271.01.378.017.106.007.194.017.268.03a.947.947 0 0 1 .184.047.455.455 0 0 1 .216.17c.027.04.053.084.082.135.057.102.125.23.238.393a1.808 1.808 0 0 0 .352.377 1.488 1.488 0 0 0 .336.197 1.24 1.24 0 0 0 .35.087h4.429s.037 0 .099-.012a1.24 1.24 0 0 0 .413-.154 1.488 1.488 0 0 0 .352-.28c.06-.063.118-.134.174-.215.112-.162.18-.291.238-.393.029-.051.055-.095.082-.134a.454.454 0 0 1 .216-.17.94.94 0 0 1 .184-.048c.074-.013.162-.022.268-.03.107-.007.231-.012.378-.017a2.619 2.619 0 0 0 .45-.053 3.437 3.437 0 0 0 1.306-.584 2.943 2.943 0 0 0 .353-.31 2.358 2.358 0 0 0 .277-.353 1.797 1.797 0 0 0 .18-.39 1.437 1.437 0 0 0 .065-.417v-.652a.715 1.157 0 0 0 .113-.014.715 1.157 0 0 0 .109-.042.715 1.157 0 0 0 .104-.07.715 1.157 0 0 0 .095-.094.715 1.157 0 0 0 .085-.119.715 1.157 0 0 0 .073-.138.715 1.157 0 0 0 .06-.154.715 1.157 0 0 0 .042-.168.715 1.157 0 0 0 .027-.177.715 1.157 0 0 0 .009-.18.715 1.157 0 0 0-.01-.182.715 1.157 0 0 0-.026-.176.715 1.157 0 0 0-.043-.168.715 1.157 0 0 0-.059-.155.715 1.157 0 0 0-.073-.138.715 1.157 0 0 0-.085-.118.715 1.157 0 0 0-.095-.095.715 1.157 0 0 0-.104-.07.715 1.157 0 0 0-.11-.042.715 1.157 0 0 0-.112-.014v-.839a.715 1.157 0 0 0 .113-.014.715 1.157 0 0 0 .109-.042.715 1.157 0 0 0 .104-.07.715 1.157 0 0 0 .095-.094.715 1.157 0 0 0 .085-.118.715 1.157 0 0 0 .073-.139.715 1.157 0 0 0 .06-.154.715 1.157 0 0 0 .042-.168.715 1.157 0 0 0 .027-.177.715 1.157 0 0 0 .009-.18.715 1.157 0 0 0-.055-.444.715 1.157 0 0 0-.155-.375.715 1.157 0 0 0-.232-.25.715 1.157 0 0 0-.274-.09v-.84a.715 1.157 0 0 0 .112-.015.715 1.157 0 0 0 .109-.042.715 1.157 0 0 0 .104-.07.715 1.157 0 0 0 .095-.094.715 1.157 0 0 0 .086-.118.715 1.157 0 0 0 .073-.139.715 1.157 0 0 0 .059-.154.715 1.157 0 0 0 .042-.168.715 1.157 0 0 0 .027-.177.715 1.157 0 0 0 .009-.18.715 1.157 0 0 0-.01-.182.715 1.157 0 0 0-.026-.176.715 1.157 0 0 0-.042-.168.715 1.157 0 0 0-.06-.155.715 1.157 0 0 0-.072-.138.715 1.157 0 0 0-.086-.118.715 1.157 0 0 0-.095-.095.715 1.157 0 0 0-.104-.07.715 1.157 0 0 0-.11-.042.715 1.157 0 0 0-.111-.014.357.357 0 0 1-.095-.01c-.02-.005-.03-.013-.029-.025 0-.011.01-.025.029-.042a.634.634 0 0 1 .077-.058c.131-.087.37-.215.624-.375a4.77 4.77 0 0 0 .382-.265c.062-.048.121-.098.178-.15.056-.051.109-.105.157-.16.049-.055.092-.112.13-.17a.992.992 0 0 0 .091-.179.74.74 0 0 0 .047-.187.644.644 0 0 0-.008-.196 1.41 1.41 0 0 1-.035-.25c-.003-.057.001-.119.003-.18z" class="UnoptimicedTransforms" transform="matrix(.42525 0 0 .42525 -22.834 70.271)"/><path style="fill:#000;fill-opacity:0;stroke:#6e594e;stroke-width:.0925291;stroke-linecap:round;stroke-dasharray:none;stroke-opacity:1" d="M107.328 147.81h14.5M107.328 150.124h14.5M107.328 146.971h14.5M121.829 144.657h-14.5M107.328 143.816h14.5M107.452 141.467l14.282.025" transform="matrix(.42525 0 0 .42525 -22.834 70.271)"/><path style="fill:#6e594e;fill-opacity:1;stroke:#6e594e;stroke-width:.1;stroke-linecap:round;stroke-dasharray:none;stroke-opacity:1" d="M118.833 156.581h-8.19" transform="matrix(.39348 0 0 .39348 -19.256 73.713)"/></g><g style="fill:#f1ebb0;fill-opacity:1"><path style="fill:#f1ebb0;fill-opacity:1;stroke:#6e594e;stroke-width:0;stroke-dasharray:none" d="M92.64 132.167a.99 1.149 60 0 0-1.49-.283l-10.523 6.075a.99 1.149 60 0 0-.5 1.432.99 1.149 60 0 0 1.49.283l10.523-6.075a.99 1.149 60 0 0 .5-1.432zM136.82 132.43a1.149.99 27.615 0 0 .56 1.41l10.766 5.632a1.149.99 27.615 0 0 1.477-.344 1.149.99 27.615 0 0-.56-1.41l-10.766-5.633a1.149.99 27.615 0 0-1.477.345zM74.244 119.457a1.149.99 0 0 0 1.15.99h12.15a1.149.99 0 0 0 1.15-.99 1.149.99 0 0 0-1.15-.99h-12.15a1.149.99 0 0 0-1.15.99zM79.256 98.99a1.149.99 30 0 0 .5 1.432l10.522 6.075a1.149.99 30 0 0 1.49-.283 1.149.99 30 0 0-.5-1.432l-10.522-6.075a1.149.99 30 0 0-1.49.283zM150.222 98.99a.99 1.149 60 0 0-1.49-.283l-10.523 6.075a.99 1.149 60 0 0-.5 1.432.99 1.149 60 0 0 1.49.283l10.523-6.075a.99 1.149 60 0 0 .5-1.432zM114.739 77.675a.99 1.149 0 0 0-.99 1.149v12.15a.99 1.149 0 0 0 .99 1.15.99 1.149 0 0 0 .99-1.15v-12.15a.99 1.149 0 0 0-.99-1.15zM140.664 119.457a1.149.99 0 0 0 1.148.99h12.151a1.149.99 0 0 0 1.15-.99 1.149.99 0 0 0-1.15-.99h-12.15a1.149.99 0 0 0-1.15.99zM135.497 83.514a.99 1.149 30 0 0-1.432.5l-6.076 10.522a.99 1.149 30 0 0 .283 1.49.99 1.149 30 0 0 1.432-.5l6.076-10.522a.99 1.149 30 0 0-.283-1.49zM93.98 83.514a1.149.99 60 0 0-.282 1.49l6.075 10.522a1.149.99 60 0 0 1.432.5 1.149.99 60 0 0 .283-1.49l-6.075-10.523a1.149.99 60 0 0-1.432-.5z" transform="matrix(.39348 0 0 .39348 -19.256 73.713)"/></g></svg>